<?xml version="1.0"?>
<svg xmlns="http://www.w3.org/2000/svg" xmlns:xlink="http://www.w3.org/1999/xlink" xmlns:svgjs="http://svgjs.com/svgjs" version="1.1" width="512" height="512" x="0" y="0" viewBox="0 0 512 512" style="enable-background:new 0 0 512 512" xml:space="preserve" class=""><g transform="matrix(0.01,0,0,0.01,253.44000000000005,253.43950621604915)"><path xmlns="http://www.w3.org/2000/svg" d="m56 128h368a32 32 0 0 1 32 32v240a0 0 0 0 1 0 0h-432a0 0 0 0 1 0 0v-240a32 32 0 0 1 32-32z" fill="#353744" data-original="#353744" style=""/><path xmlns="http://www.w3.org/2000/svg" d="m56 128h336a32 32 0 0 1 32 32v240a0 0 0 0 1 0 0h-400a0 0 0 0 1 0 0v-240a32 32 0 0 1 32-32z" fill="#55525b" data-original="#55525b" style="" class=""/><path xmlns="http://www.w3.org/2000/svg" d="m56 400h368a32 32 0 0 1 32 32v8a0 0 0 0 1 0 0h-432a0 0 0 0 1 0 0v-8a32 32 0 0 1 32-32z" fill="#a5c3dc" transform="matrix(-1 0 0 -1 480 840)" data-original="#a5c3dc" style=""/><path xmlns="http://www.w3.org/2000/svg" d="m24 400h400a0 0 0 0 1 0 0v8a32 32 0 0 1 -32 32h-336a32 32 0 0 1 -32-32v-8a0 0 0 0 1 0 0z" fill="#d7e6e6" data-original="#d7e6e6" style="" class=""/><path xmlns="http://www.w3.org/2000/svg" d="m192 440h72v32h-72z" fill="#aac3d7" data-original="#aac3d7" style="" class=""/><path xmlns="http://www.w3.org/2000/svg" d="m192 456h48v16h-48z" fill="#d7e6e6" data-original="#d7e6e6" style="" class=""/><path xmlns="http://www.w3.org/2000/svg" d="m160 472h128a16 16 0 0 1 16 16v8a0 0 0 0 1 0 0h-160a0 0 0 0 1 0 0v-8a16 16 0 0 1 16-16z" fill="#d7e6e6" data-original="#d7e6e6" style="" class=""/><path xmlns="http://www.w3.org/2000/svg" d="m272 472h16a16 16 0 0 1 16 16v8a0 0 0 0 1 0 0h-48a0 0 0 0 1 0 0v-8a16 16 0 0 1 16-16z" fill="#aac3d7" data-original="#aac3d7" style="" class=""/><path xmlns="http://www.w3.org/2000/svg" d="m216 336v-40a8 8 0 0 0 -16 0v72h48v-32z" fill="#f0915a" data-original="#f0915a" style="" class=""/><path xmlns="http://www.w3.org/2000/svg" d="m216 320h32a8 8 0 0 1 8 8v8a8 8 0 0 1 -8 8h-24a8 8 0 0 1 -8-8v-16a0 0 0 0 1 0 0z" fill="#fab991" data-original="#fab991" style="" class=""/><path xmlns="http://www.w3.org/2000/svg" d="m208 352v-20a12 12 0 0 0 -12-12 4 4 0 0 0 -4 4v36a8 8 0 0 0 8 8h24a16 16 0 0 0 -16-16z" fill="#fab991" data-original="#fab991" style="" class=""/><path xmlns="http://www.w3.org/2000/svg" d="m200 368h48v32h-48z" fill="#d7322d" data-original="#d7322d" style="" class=""/><path xmlns="http://www.w3.org/2000/svg" d="m128 160h-16a48 48 0 0 0 -48 48v112h56v-16h28a28 28 0 0 0 28-28v-68a48 48 0 0 0 -48-48z" fill="#fab991" data-original="#fab991" style="" class=""/><path xmlns="http://www.w3.org/2000/svg" d="m112 208h-48a8 8 0 0 0 -8 8v64a8 8 0 0 0 8 8h32a8 8 0 0 0 8-8v-40h8a8 8 0 0 0 8-8v-16a8 8 0 0 0 -8-8z" fill="#d7e6e6" data-original="#d7e6e6" style="" class=""/><path xmlns="http://www.w3.org/2000/svg" d="m104 224a0 0 0 0 1 0 0v32a0 0 0 0 1 0 0 16 16 0 0 1 -16-16 16 16 0 0 1 16-16z" fill="#f0915a" data-original="#f0915a" style="" class=""/><path xmlns="http://www.w3.org/2000/svg" d="m80 304h40a0 0 0 0 1 0 0v16a0 0 0 0 1 0 0h-56a0 0 0 0 1 0 0 16 16 0 0 1 16-16z" fill="#f0915a" data-original="#f0915a" style="" class=""/><path xmlns="http://www.w3.org/2000/svg" d="m64 320h88a24 24 0 0 1 24 24v56a0 0 0 0 1 0 0h-136a0 0 0 0 1 0 0v-56a24 24 0 0 1 24-24z" fill="#d7322d" data-original="#d7322d" style="" class=""/><path xmlns="http://www.w3.org/2000/svg" d="m120 320h-24a24 24 0 0 1 24 24v12a12 12 0 0 0 12 12 12 12 0 0 0 12-12v-12a24 24 0 0 0 -24-24z" fill="#d7e6e6" data-original="#d7e6e6" style="" class=""/><path xmlns="http://www.w3.org/2000/svg" d="m64 320a24 24 0 0 1 24 24v56a0 0 0 0 1 0 0h-48a0 0 0 0 1 0 0v-56a24 24 0 0 1 24-24z" fill="#f04b37" data-original="#f04b37" style=""/><circle xmlns="http://www.w3.org/2000/svg" cx="141.333" cy="229.333" fill="#353744" r="5.333" data-original="#353744" style=""/><circle xmlns="http://www.w3.org/2000/svg" cx="162.667" cy="229.333" fill="#353744" r="5.333" data-original="#353744" style=""/><path xmlns="http://www.w3.org/2000/svg" d="m146.667 240a16 16 0 0 1 16 16 8 8 0 0 1 -8 8 8 8 0 0 1 -8-8v-16a0 0 0 0 1 0 0z" fill="#f0915a" data-original="#f0915a" style="" class=""/><path xmlns="http://www.w3.org/2000/svg" d="m146.667 280h16a0 0 0 0 1 0 0 8 8 0 0 1 -8 8 8 8 0 0 1 -8-8 0 0 0 0 1 0 0z" fill="#353744" data-original="#353744" style=""/><circle xmlns="http://www.w3.org/2000/svg" cx="360" cy="96" fill="#4b55a5" r="72" data-original="#4b55a5" style=""/><ellipse xmlns="http://www.w3.org/2000/svg" cx="360" cy="96" fill="#4b55a5" rx="24" ry="72" data-original="#4b55a5" style=""/><path xmlns="http://www.w3.org/2000/svg" d="m440 96a80 80 0 1 0 -87.98 79.6c-.006.133-.02.264-.02.4v8a8 8 0 0 0 16 0v-8c0-.134-.014-.265-.02-.4a80.006 80.006 0 0 0 72.02-79.6zm-16.518-8h-31.642c-.83-20.91-4.885-39.435-10.9-52.463a64.155 64.155 0 0 1 42.542 52.463zm-63.482 71.545c-1.893-1.625-5.717-6.478-9.3-17.062-3.647-10.79-5.9-24.229-6.525-38.483h31.64c-.619 14.254-2.878 27.693-6.525 38.483-3.572 10.584-7.397 15.437-9.29 17.062zm-15.82-71.545c.62-14.254 2.878-27.693 6.525-38.483 3.578-10.584 7.4-15.437 9.3-17.062 1.893 1.625 5.718 6.478 9.3 17.062 3.637 10.79 5.895 24.229 6.515 38.483zm-5.12-52.463c-6.014 13.028-10.07 31.553-10.9 52.463h-31.642a64.155 64.155 0 0 1 42.542-52.463zm-42.542 68.463h31.642c.83 20.91 4.886 39.435 10.9 52.463a64.155 64.155 0 0 1 -42.542-52.463zm84.423 52.463c6.014-13.028 10.069-31.553 10.9-52.463h31.642a64.155 64.155 0 0 1 -42.542 52.463z" fill="#6ea5d7" data-original="#6ea5d7" style="" class=""/><path xmlns="http://www.w3.org/2000/svg" d="m360 208a8 8 0 0 0 -8 8v8a8 8 0 0 0 16 0v-8a8 8 0 0 0 -8-8z" fill="#6ea5d7" data-original="#6ea5d7" style="" class=""/><path xmlns="http://www.w3.org/2000/svg" d="m456 224h-220.686a11.313 11.313 0 0 0 -11.314 11.314 11.314 11.314 0 0 0 3.314 8l44.686 44.686v40a32 32 0 0 0 32 32h152a32 32 0 0 0 32-32v-72a32 32 0 0 0 -32-32z" fill="#f5871e" data-original="#f5871e" style="" class=""/><path xmlns="http://www.w3.org/2000/svg" d="m424 224h-188.686a11.313 11.313 0 0 0 -11.314 11.314 11.314 11.314 0 0 0 3.314 8l44.686 44.686v40a32 32 0 0 0 32 32h120a32 32 0 0 0 32-32v-72a32 32 0 0 0 -32-32z" fill="#fabe19" data-original="#fabe19" style="" class=""/><g xmlns="http://www.w3.org/2000/svg" fill="#f5871e"><rect height="24" rx="12" width="112" x="312" y="256" fill="#f5871e" data-original="#f5871e" style="" class=""/><rect height="24" rx="12" width="64" x="312" y="304" fill="#f5871e" data-original="#f5871e" style="" class=""/></g></g></svg>
