<svg height="512" viewBox="0 0 512 512" width="512" xmlns="http://www.w3.org/2000/svg"><g><g><g><path d="m496 68v292h-480v-292a19.994 19.994 0 0 1 20-20h440a19.994 19.994 0 0 1 20 20z" fill="#78b9eb"/><path d="m496 360v20a19.994 19.994 0 0 1 -20 20h-440a19.994 19.994 0 0 1 -20-20v-20z" fill="#e0e0e2"/><path d="m320 440h-128l16-40h96z" fill="#acabb1"/><path d="m152 440h208v24h-208z" fill="#e0e0e2"/></g><g><path d="m190.89 135.55c-47.38 23.33-78.89 15.45-78.89 15.45v-7a40.015 40.015 0 0 1 40-40 39.305 39.305 0 0 1 28.28 12.22 41.7 41.7 0 0 1 10.53 19.02c.03.1.06.21.08.31z" fill="#ff9811"/><path d="m192 145v31a40 40 0 0 1 -80 0v-25s31.51 7.88 78.89-15.45a40.59 40.59 0 0 1 1.11 9.45z" fill="#ffdaaa"/><path d="m192 135c-.37.19-.74.37-1.11.55-.02-.1-.05-.21-.08-.31z" fill="#e0e0e2"/><path d="m168 232h16a40 40 0 0 1 40 40v24h-144v-24a40 40 0 0 1 40-40h16" fill="#006df0"/><path d="m168 208v24a16 16 0 0 1 -32 0v-24" fill="#ffdaaa"/></g><path d="m432 72v128h-128l-32 32v-32h-32v-128z" fill="#e0e0e2"/><path d="m16 296h480v64h-480z" fill="#ffda44"/></g><g><path d="m476 40h-440a28.031 28.031 0 0 0 -28 28v312a28.031 28.031 0 0 0 28 28h160.18l-9.6 24h-34.58a8 8 0 0 0 -8 8v24a8 8 0 0 0 8 8h208a8 8 0 0 0 8-8v-24a8 8 0 0 0 -8-8h-34.58l-9.6-24h160.18a28.031 28.031 0 0 0 28-28v-312a28.031 28.031 0 0 0 -28-28zm-124 408v8h-192v-8zm-148.18-16 9.6-24h85.16l9.6 24zm284.18-52a12.01 12.01 0 0 1 -12 12h-440a12.01 12.01 0 0 1 -12-12v-12h464zm0-28h-464v-48h464zm-361.65-191.72c12.94 0 32.94-2.34 57.65-12.79v28.51a32 32 0 0 1 -64 0v-15.92c1.88.12 3.99.2 6.35.2zm-6.35-16.24v-.04a32.036 32.036 0 0 1 32-32c12.65 0 23.86 8.04 29.01 19.34-19.84 8.84-36.12 11.77-46.71 12.62a92.371 92.371 0 0 1 -14.3.08zm40 79.28v8.68a8 8 0 0 1 -16 0v-8.68a47.4 47.4 0 0 0 16 0zm-8 32.68a24.031 24.031 0 0 0 22.62-16h9.38a32.036 32.036 0 0 1 32 32v16h-16v-8a8 8 0 0 0 -16 0v8h-64v-8a8 8 0 0 0 -16 0v8h-16v-16a32.036 32.036 0 0 1 32-32h9.38a24.031 24.031 0 0 0 22.62 16zm336 32h-256v-16a48.051 48.051 0 0 0 -48-48h-8v-6.46a48.012 48.012 0 0 0 24-41.54v-32c0-.23-.01-.45-.03-.68a49.189 49.189 0 0 0 -13.93-32.66 47.054 47.054 0 0 0 -34.04-14.66 48.051 48.051 0 0 0 -48 48v32a48.012 48.012 0 0 0 24 41.54v6.46h-8a48.051 48.051 0 0 0 -48 48v16h-48v-220a12.01 12.01 0 0 1 12-12h440a12.01 12.01 0 0 1 12 12z"/><path d="m240 208h24v24a8 8 0 0 0 13.657 5.657l29.656-29.657h124.687a8 8 0 0 0 8-8v-128a8 8 0 0 0 -8-8h-192a8 8 0 0 0 -8 8v128a8 8 0 0 0 8 8zm8-128h176v112h-120a8 8 0 0 0 -5.657 2.343l-18.343 18.343v-12.686a8 8 0 0 0 -8-8h-24z"/><path d="m368 320h-168a8 8 0 0 0 -16 0h-40a8 8 0 0 0 0 16h40a8 8 0 0 0 16 0h168a8 8 0 0 0 0-16z"/></g></g></svg>