<?xml version="1.0" standalone="no"?><!-- Generator: Gravit.io --><svg xmlns="http://www.w3.org/2000/svg" xmlns:xlink="http://www.w3.org/1999/xlink" style="isolation:isolate" viewBox="0 0 450 450" width="20" height="20"><defs><clipPath id="_clipPath_105pNVa7G4C7dGMvjQAEjnoYYK0cmvkU"><rect width="450" height="450"/></clipPath></defs><g clip-path="url(#_clipPath_105pNVa7G4C7dGMvjQAEjnoYYK0cmvkU)"><g id="Group"><path d="M 81.077 178.55 L 108.989 178.55 C 120.073 178.55 129.072 187.549 129.072 198.633 L 129.072 390.551 C 129.072 401.635 120.073 410.633 108.989 410.633 L 81.077 410.633 C 69.993 410.633 60.994 401.635 60.994 390.551 L 60.994 198.633 C 60.994 187.549 69.993 178.55 81.077 178.55 Z" style="stroke:none;fill:#6136FF;stroke-miterlimit:10;"/><path d=" M 324.022 327.083 L 324.022 384.239 C 324.022 398.807 312.195 410.633 297.628 410.633 L 232.827 410.633 C 218.26 410.633 206.433 398.807 206.433 384.239 L 206.433 327.083 L 324.022 327.083 Z " fill="rgb(78,43,204)"/><path d=" M 324.022 327.083 L 324.022 204.944 C 324.022 190.377 312.195 178.55 297.628 178.55 L 232.827 178.55 C 218.26 178.55 206.433 190.377 206.433 204.944 L 206.433 327.083 L 324.022 327.083 Z " fill="rgb(97,54,255)"/><path d=" M 232.827 254.273 C 232.827 236.39 247.346 221.872 265.228 221.872 C 283.11 221.872 297.628 236.39 297.628 254.273 C 297.628 272.155 283.11 286.673 265.228 286.673 C 247.346 286.673 232.827 272.155 232.827 254.273 Z " fill="rgb(102,188,255)"/><path d=" M 206.433 345.65 L 206.433 402.124 C 206.433 406.82 202.62 410.633 197.924 410.633 L 137.582 410.633 C 132.885 410.633 129.072 406.82 129.072 402.124 L 129.072 345.65 L 206.433 345.65 Z " fill="rgb(249,99,0)"/><path d=" M 206.433 345.65 L 206.433 204.944 L 129.072 204.944 L 129.072 345.65 L 206.433 345.65 Z " fill="rgb(149,59,0)"/><path d=" M 206.433 204.944 L 206.433 103.51 C 206.433 98.813 202.62 95 197.924 95 L 137.582 95 C 132.885 95 129.072 98.813 129.072 103.51 L 129.072 204.944 L 206.433 204.944 Z " fill="rgb(249,99,0)"/><path d="M 327.921 137.594 L 385.107 137.594 C 387.259 137.594 389.006 139.341 389.006 141.493 L 389.006 409.101 C 389.006 411.253 387.259 413 385.107 413 L 327.921 413 C 325.769 413 324.022 411.253 324.022 409.101 L 324.022 141.493 C 324.022 139.341 325.769 137.594 327.921 137.594 Z" style="stroke:none;fill:#66BCFF;stroke-miterlimit:10;"/><rect x="324.022" y="275.297" width="64.983" height="14.016" transform="matrix(1,0,0,1,0,0)" fill="rgb(245,250,255)"/><rect x="324.022" y="221.872" width="64.983" height="14.016" transform="matrix(1,0,0,1,0,0)" fill="rgb(245,250,255)"/><rect x="324.022" y="327.083" width="64.983" height="14.016" transform="matrix(1,0,0,1,0,0)" fill="rgb(245,250,255)"/></g></g></svg>